<svg xmlns="http://www.w3.org/2000/svg" shape-rendering="geometricPrecision" text-rendering="geometricPrecision" image-rendering="optimizeQuality" fill-rule="evenodd" clip-rule="evenodd" viewBox="0 0 512 367.99"><path d="M127.9 240.39c-7.77-7.02-13.69-13.49-15.07-28.72l-1 .03c-2.32-.04-4.56-.57-6.64-1.76-3.35-1.9-5.7-5.17-7.29-8.86-3.37-7.74-6.04-28.08 2.43-33.91l-1.58-1.05-.18-2.26c-.33-4.09-.42-9.05-.49-14.24-.31-19.14-.7-33.59-16.08-38.25l-6.61-2 4.35-5.37c12.44-15.37 25.42-28.8 38.53-39.11 26.39-20.79 58.85-33.1 87.99-9.53 4.01 3.23 7.89 7.11 11.63 11.67 44.87 4.36 66.36 68.1 31.06 102.22 2.02.08 3.93.54 5.61 1.44 6.41 3.43 6.62 10.88 4.93 17.14-1.66 5.23-3.78 11.29-5.77 16.37-2.43 6.88-5.97 8.16-12.83 7.42-.36 16.99-6.3 23.35-16.86 33.33-2.19 5.71-2.42 10.78 4.03 15.75 53.31 41.02 129.22 18.53 129.22 107.29H0c0-88.27 71.59-65.05 126.33-106.89 7.65-5.86 9.49-13.56 1.57-20.71zM315.03 23.14l-15.31.39c-6.19.13-11.34-4.77-11.48-10.96-.13-6.19 4.77-11.33 10.96-11.47L341.69.01l.22-.01h.62l.24.02h.04l.25.01.04.01.24.02h.04l.24.03.04.01.24.03.04.01.23.04.04.01.24.04.04.01.23.05.04.01.23.06.04.01.23.06.04.01.22.06.04.02.22.07.04.02.22.07.04.02.21.08.04.02.21.09.04.01.22.09.04.03.2.09.04.02.2.1.05.02.2.11.03.02.2.11.04.02.19.12.03.02.2.13.04.02.19.12.03.03.19.13.03.02.19.13.03.03.18.14.03.03.18.14.03.03.18.14.03.03.17.15.03.03.16.15.04.03.16.16.02.03.17.17.02.03.16.16.03.03.15.17.03.04.14.17.03.03.14.18.03.03.14.18.02.03.13.19.03.03.13.19.02.04.12.19.03.03.12.2.02.04.12.19.02.04.11.2.02.03.11.21.02.04.09.2.03.04.1.21.01.03.09.22.02.04.09.22.01.03.09.22v.04l.09.22v.04l.08.22.01.04.07.23.01.04.06.23.01.04.06.23.01.04.04.23.01.04.04.24.01.04.04.24.01.04.03.23v.05l.03.24v.04l.03.24v.04l.02.25v.59l.9 43.91c.11 6.18-4.8 11.32-10.99 11.43-6.19.11-11.32-4.81-11.44-11l-.35-17.1-29.24 29.24c-4.39 4.39-11.52 4.39-15.91 0-4.39-4.39-4.39-11.52 0-15.91l28.68-28.68zm156.82 53.95-29.43 1.7c-6.19.33-11.5-4.41-11.84-10.6-.33-6.19 4.41-11.5 10.6-11.83l55.78-3.2.24-.02h.34l.23-.01h.29l.05.01h.28l.24.02h.05l.23.03h.05l.23.02.05.01.23.03.05.01.22.03.05.02.22.04.05.01.23.04.04.01.23.06.04.01.23.05.04.02.22.07.05.01.21.07.05.01.21.08.04.01.21.09.05.01.21.08.04.03.21.09.04.01.21.1.04.02.2.09.05.03.19.1.04.02.2.11.04.03.19.11.04.02.19.12.04.03.19.12.04.02.18.13.04.03.18.13.04.02.18.14.03.03.18.13.03.04.17.14.04.03.17.14.03.04.17.14.03.04.16.15.03.04.16.16.04.03.14.16.04.04.15.17.02.03.15.17.03.03.14.17.03.04.14.18.03.03.13.18.03.04.13.18.02.04.13.19.02.04.12.19.03.04.11.2.03.04.11.19.02.04.1.2.03.05.1.19.02.05.1.21.01.04.1.2.02.05.09.21v.04l.18.47.02.05.07.21.01.05.08.22v.05l.07.22.01.05.05.23.01.04.06.23.01.05.04.22.01.05.04.24v.05l.04.22.01.05.02.24.01.05.02.24v.05l.02.24v.05l.01.24 2.94 56.57c.31 6.19-4.45 11.48-10.64 11.79-6.19.31-11.47-4.46-11.78-10.65l-1.51-29.02-48.44 48.44c-4.39 4.39-11.52 4.39-15.91 0-4.39-4.39-4.39-11.52 0-15.91l48.15-48.16zm-101.48 65.54 17.22.9c8.05.43 14.3 7.36 13.88 15.41l-.83 15.95c7.7 2.75 14.89 6.49 21.47 11.07l12.47-11.24c5.99-5.39 15.3-4.91 20.7 1.09l11.55 12.82c5.39 5.99 4.9 15.31-1.09 20.7l-13.4 12.07a90.516 90.516 0 0 1 7.27 21.54l18.39.96c8.04.42 14.29 7.35 13.87 15.4l-.89 17.23c-.44 8.06-7.37 14.3-15.41 13.87l-18.55-.97a91.024 91.024 0 0 1-9.53 20.44l12.29 13.65c5.4 5.99 4.91 15.3-1.09 20.7l-12.81 11.54c-6 5.39-15.31 4.9-20.7-1.08l-11.61-12.88a91.815 91.815 0 0 1-22.1 8.54l-.18 3.36c-1.27-18.64-5.1-33.28-10.9-45.02 21.66-3.48 38.69-21.69 39.88-44.48 1.37-26.22-18.78-48.6-45.01-49.97-26.23-1.37-48.6 18.78-49.97 45.01-.09 1.64-.09 3.28-.01 4.89-8.94-3.4-18.4-6.38-28.09-9.43-9.72-3.05-19.82-6.24-29.17-10.35 1.12-2.25 2.12-4.57 2.98-7 1.66-1.24 3.2-2.57 4.62-4.02l6.65.35a90.452 90.452 0 0 1 11.93-24.43l-8.41-9.33c-5.4-5.98-4.91-15.31 1.08-20.7l12.82-11.55c5.98-5.39 15.3-4.9 20.7 1.09l9.08 10.09c7.72-3.79 16.04-6.5 24.74-8l.75-14.35c.43-8.04 7.36-14.29 15.41-13.87z"/></svg>