<?xml version="1.0" encoding="utf-8"?><svg version="1.1" id="Layer_1" xmlns="http://www.w3.org/2000/svg" xmlns:xlink="http://www.w3.org/1999/xlink" x="0px" y="0px" viewBox="0 0 122.88 71.04" style="enable-background:new 0 0 122.88 71.04" xml:space="preserve"><style type="text/css">.st0{fill-rule:evenodd;clip-rule:evenodd;}</style><g><path class="st0" d="M91.95,64.68l1.99-7.59l-1.37-1.5c-0.62-0.9-0.75-1.69-0.41-2.37c0.74-1.47,2.28-1.2,3.72-1.2 c1.51,0,3.37-0.29,3.84,1.6c0.16,0.63-0.04,1.29-0.48,1.97l-1.37,1.5l1.19,4.56l7.89-6.86l4.09,0.1c-1.41-2.83-3.2-5.23-5.28-7.49 c3.92,1.52,7.93,3.02,10.9,4.88c1.89,1.18,2.86,2.08,3.63,3.51c1.62,3.05,1.8,5.78,2.04,9.08l0.57,2.86h-22.24l0.02,0.07h-8.51 c-0.19,1.95-1.31,3.08-3.5,3.24H61.68H34.24c-2.2-0.17-3.32-1.3-3.5-3.27l0.76-12.04c0.21-2.78,0.99-4.98,2.26-6.66 c0.84-1.11,1.88-1.93,3.03-2.57c3.65-2.03,12.17-2.63,15.48-5.61l5.07,14.91l2.55-8.85l-1.25-1.37c-0.56-0.82-0.69-1.54-0.37-2.16 c0.68-1.34,2.08-1.09,3.39-1.09c1.37,0,3.06-0.26,3.49,1.46c0.14,0.57-0.04,1.17-0.44,1.79l-1.25,1.37l2.55,8.85l4.59-14.91 c3.31,2.98,11.84,3.58,15.48,5.61c1.15,0.64,2.2,1.46,3.03,2.57c1.27,1.68,2.05,3.87,2.26,6.66L91.95,64.68L91.95,64.68z M15.29,48.25l3.4,9.99l1.71-5.93l-0.84-0.92c-0.38-0.55-0.46-1.03-0.25-1.45c0.45-0.9,1.39-0.73,2.27-0.73 c0.92,0,2.05-0.17,2.34,0.98c0.1,0.38-0.03,0.79-0.29,1.2l-0.84,0.92l1.71,5.93l3.08-9.99c0.45,0.4,1.07,0.74,1.8,1.03 c-0.25,0.53-0.48,1.09-0.68,1.67c-0.52,1.51-0.86,3.19-1,5.06l0.01,0c0,0.04-0.01,0.09-0.01,0.13l-0.74,11.58h-5.35H2.35 C0.87,67.61,0.12,66.85,0,65.53l0.51-7.34c0.14-1.86,0.67-3.33,1.52-4.46c0.56-0.74,1.26-1.29,2.03-1.72 C6.5,50.65,13.07,50.25,15.29,48.25L15.29,48.25z M13.62,34.09c-0.33,0.03-0.58,0.1-0.76,0.22c-0.1,0.07-0.18,0.16-0.23,0.26 c-0.06,0.12-0.08,0.28-0.08,0.45c0.02,0.55,0.31,1.29,0.88,2.14l0.01,0.02l0,0l1.9,3.02c0.76,1.2,1.55,2.43,2.53,3.33 c0.93,0.85,2.06,1.43,3.56,1.43c1.62,0,2.8-0.6,3.77-1.5c1.01-0.95,1.81-2.25,2.6-3.55l2.13-3.51c0.43-0.98,0.56-1.57,0.42-1.85 c-0.09-0.17-0.44-0.22-1.02-0.17c-0.37,0.08-0.76,0.01-1.17-0.2l1.07-3.2c-3.91-0.05-6.58-0.73-9.75-2.75 c-1.04-0.66-1.35-1.42-2.39-1.35c-0.79,0.15-1.45,0.5-1.97,1.07c-0.5,0.54-0.88,1.28-1.13,2.23l0.63,3.83 C14.3,34.21,13.96,34.23,13.62,34.09L13.62,34.09z M30.55,33.14c0.46,0.14,0.8,0.4,1,0.81c0.32,0.65,0.2,1.62-0.41,3l0,0 c-0.01,0.03-0.02,0.05-0.04,0.08l-2.16,3.56c-0.84,1.38-1.69,2.76-2.83,3.83c-1.19,1.12-2.66,1.86-4.67,1.85 c-1.88,0-3.29-0.72-4.45-1.78c-1.11-1.02-1.96-2.32-2.76-3.6l-1.9-3.02c-0.71-1.06-1.07-2.02-1.1-2.82 c-0.01-0.39,0.05-0.74,0.2-1.04c0.15-0.33,0.38-0.6,0.7-0.81c0.15-0.1,0.33-0.19,0.52-0.26c-0.12-1.62-0.16-3.62-0.08-5.3 c0.04-0.41,0.12-0.82,0.23-1.23c0.49-1.73,1.7-3.13,3.21-4.09c0.53-0.34,1.11-0.62,1.73-0.84c3.65-1.32,8.48-0.6,11.07,2.2 c1.05,1.14,1.72,2.65,1.86,4.65L30.55,33.14L30.55,33.14z M49.65,19.77c-0.42,0.05-0.75,0.16-0.99,0.32 c-0.15,0.1-0.27,0.24-0.34,0.39c-0.08,0.18-0.12,0.41-0.12,0.67c0.02,0.83,0.46,1.92,1.32,3.18l0.02,0.02h0l2.83,4.51 c1.13,1.8,2.31,3.63,3.77,4.96c1.39,1.27,3.08,2.13,5.3,2.14c2.42,0.01,4.18-0.89,5.62-2.23c1.51-1.41,2.71-3.36,3.89-5.3 l3.18-5.24c0.64-1.46,0.84-2.34,0.63-2.76c-0.13-0.27-0.69-0.33-1.63-0.24c-0.07,0.01-0.14,0.01-0.21,0c-0.39,0-0.81-0.1-1.27-0.31 l1.43-4.78c-5.84-0.07-9.83-1.09-14.55-4.11c-1.55-0.99-2.02-2.12-3.57-2.01c-1.17,0.23-2.16,0.75-2.94,1.59 c-0.75,0.81-1.32,1.91-1.69,3.32l1.01,5.78C50.74,19.98,50.18,20,49.65,19.77L49.65,19.77z M75.05,18.34 c0.69,0.2,1.19,0.6,1.5,1.21c0.48,0.98,0.3,2.42-0.61,4.48l0,0c-0.02,0.04-0.04,0.08-0.06,0.11l-3.23,5.32 c-1.25,2.06-2.52,4.13-4.23,5.72c-1.78,1.67-3.97,2.78-6.97,2.77c-2.8-0.01-4.91-1.08-6.64-2.66c-1.66-1.52-2.92-3.46-4.12-5.37 l-2.83-4.51c-1.05-1.57-1.6-3.02-1.64-4.21c-0.02-0.58,0.08-1.1,0.3-1.56c0.23-0.49,0.57-0.9,1.04-1.21 c0.23-0.16,0.49-0.29,0.78-0.39c-0.17-2.41-0.23-5.39-0.12-7.9c0.06-0.61,0.18-1.22,0.35-1.83c0.72-2.59,2.54-4.67,4.79-6.1 c0.79-0.5,1.66-0.92,2.58-1.25c5.44-1.97,12.66-0.89,16.52,3.29c1.57,1.7,2.56,3.96,2.77,6.94L75.05,18.34L75.05,18.34z M84.88,42.96l2.5-0.07l2.07-0.05c-2.42-7.45-1.61-14.3,4.22-20.12c0.99,3.2,3.2,5.83,6.97,7.78c1.8,1.34,3.55,2.96,5.23,4.81 c0.3-1.23-0.84-2.73-2.23-4.27c1.28,0.63,2.46,1.52,3.29,3.22c0.97,1.98,0.95,3.64,0.64,5.79c-0.15,1-0.39,1.93-0.74,2.78h3.45 c3.64-7.79,1.33-19.34-6.11-24.24c-2.28-1.5-3.92-1.45-6.6-1.44c-3.07,0-4.63,0.1-7.26,1.83c-3.87,2.56-6.25,6.99-7.25,13.14 C82.87,35.19,82.74,40.49,84.88,42.96L84.88,42.96z"/></g></svg>